# xmcd
#
# Track frame offsets: 
#        150
#        17248
#        39287
#        58727
#        73663
#        93583
#        108456
#        127675
#        144388
#        157133
#        176803
#        191375
#        204769
#        223075
#        244313
#        262057
#        277734
#        299806
#
# Disc length: 4289 seconds
#
# Revision: 0
# Processed by: cddbd v1.4PL0 Copyright (c) Steve Scherf et al.
# Submitted via: ExactAudioCopy v0.95a3
#
DISCID=1510bf12
DTITLE=陈白强 - 一生何求 经典纪念专辑HDCD 24k 3CD 2
DYEAR=2002
DGENRE=Pop
TTITLE0=迷失中有着你
TTITLE1=一生不可自决
TTITLE2=我的故事
TTITLE3=不问究竟
TTITLE4=亲爱的你
TTITLE5=太阳花
TTITLE6=盼望的缘分
TTITLE7=粉红色的一生
TTITLE8=公益心
TTITLE9=深爱着你
TTITLE10=涟漪
TTITLE11=冰封的心
TTITLE12=脉搏奔流
TTITLE13=有了你
TTITLE14=梦呓
TTITLE15=画出彩虹
TTITLE16=冷风中
TTITLE17=疾风
EXTD=
EXTT0=
EXTT1=
EXTT2=
EXTT3=
EXTT4=
EXTT5=
EXTT6=
EXTT7=
EXTT8=
EXTT9=
EXTT10=
EXTT11=
EXTT12=
EXTT13=
EXTT14=
EXTT15=
EXTT16=
EXTT17=
PLAYORDER=
